<svg width="88" height="99" viewBox="0 0 88 99" fill="none" xmlns="http://www.w3.org/2000/svg">
<path d="M44.6238 68.2542C44.4901 71.6652 44.9808 75.0074 45.7663 78.3153C46.2332 80.2794 46.8264 82.2092 47.5167 84.11C47.6009 84.3415 47.6376 84.5983 47.8719 84.79C50.8692 84.063 53.9306 83.5367 57.0323 83.2546C58.3817 83.1316 59.7293 83.0357 61.0695 83.3414C61.91 83.5331 62.679 83.8659 63.3436 84.4139C64.6399 85.4845 65.0427 86.9477 64.4806 88.5211C64.2591 89.1415 63.9277 89.7058 63.5487 90.2411C59.9984 95.2491 55.1647 98.0795 48.9742 98.5769C47.8371 98.6673 46.7148 98.5226 45.6345 98.1302C44.9479 97.8806 44.3235 97.5297 43.7907 97.0323C42.6427 95.9599 42.3845 94.6993 43.1224 93.3175C44.2997 91.1128 46.2241 89.874 48.6428 89.326C49.7029 89.0872 50.7667 89.0981 51.825 89.3386C53.9764 89.8306 54.8479 91.8725 53.6871 93.7425C52.9126 94.9905 51.7389 95.6651 50.2833 95.8224C49.0657 95.9544 47.947 95.2364 47.6284 94.1675C47.4398 93.5309 47.5002 92.925 48.0385 92.4584C48.5476 92.0171 49.128 91.8598 49.7889 92.104C50.0673 92.2052 50.2723 92.3861 50.4151 92.6375C50.4664 92.7279 50.4536 92.8238 50.3767 92.8907C50.298 92.9594 50.1863 92.9468 50.1277 92.8762C49.8402 92.5362 49.4777 92.4096 49.0401 92.4675C48.3187 92.5633 47.8646 93.1746 48.0367 93.8746C48.2253 94.636 48.7252 95.1189 49.4997 95.2943C51.1219 95.6614 53.2129 94.3665 53.6065 92.7623C53.9507 91.3588 53.222 90.2122 51.7682 89.9282C50.9937 89.7763 50.2046 89.7582 49.4191 89.8794C47.0846 90.2375 45.2408 91.3679 43.9665 93.3392C43.0638 94.7373 43.3458 95.9183 44.7465 96.8515C45.9421 97.6473 47.3007 97.9511 48.6995 97.8498C55.0676 97.3886 59.949 94.4424 63.3674 89.1234C63.5011 88.9154 63.5999 88.6821 63.6952 88.4524C64.2866 87.0291 63.9258 85.745 62.668 84.8335C61.8587 84.2457 60.9286 83.987 59.938 83.9201C57.8818 83.7827 55.8549 84.072 53.8299 84.3451C46.2204 85.3688 39.021 87.6584 32.2318 91.2069C28.2714 93.2759 24.571 95.7284 21.1178 98.5479C20.8798 98.7433 20.6912 99.1014 20.2316 98.9784C20.3085 98.5678 20.6418 98.4159 20.8908 98.2097C27.0392 93.1457 33.9071 89.3332 41.4507 86.7017C43.1389 86.1121 44.8508 85.593 46.5774 85.1264C47.2988 84.9311 47.3135 84.9148 47.026 84.2945C45.6162 81.2506 44.7538 78.0567 44.2814 74.747C43.9115 72.1535 43.7944 69.5527 43.917 66.9375C43.9848 66.5595 44.0507 66.1815 44.1184 65.8035C43.9463 66.0043 43.7504 66.1653 43.7522 66.4185C43.2487 67.1039 42.6372 67.6754 41.9359 68.1619C41.4196 68.5182 40.9161 68.8926 40.5023 69.3683C40.1288 69.7987 39.8523 70.278 39.8102 70.864C39.7681 71.4391 39.953 71.9021 40.4455 72.2258C40.6542 72.3633 40.874 72.4863 41.0864 72.6165C42.2637 73.3417 42.6372 74.3527 42.2051 75.6549C41.9414 76.4507 41.4287 77.0746 40.7623 77.5684C40.2093 77.9771 39.6216 78.3406 39.0522 78.7259C38.426 79.1473 37.8254 79.5976 37.3768 80.2143C37.0381 80.6791 36.8202 81.1819 36.8202 81.7661C36.8184 82.4063 37.0179 82.7626 37.5086 82.967C38.047 83.1913 38.5047 83.0936 38.9478 82.6451C39.0686 82.5221 39.1437 82.2616 39.3689 82.4479C39.5429 82.5908 39.4238 82.7879 39.3323 82.9525C38.7976 83.8948 37.3365 83.9545 36.5913 83.0502C36.172 82.542 36.0475 81.9415 36.1299 81.2977C36.2215 80.5706 36.5053 79.9213 36.963 79.348C37.2944 78.9339 37.6478 78.5378 37.9829 78.1254C38.2777 77.7619 38.5688 77.3948 38.7262 76.9462C38.9789 76.23 38.6823 75.7037 37.9389 75.5717C37.6277 75.5156 37.3164 75.5572 37.007 75.6404C36.5529 75.7616 36.0933 75.8647 35.6301 75.9569C34.6011 76.1613 33.7643 75.8231 33.1326 75.0165C32.4753 74.1791 32.4222 73.2477 32.8305 72.2891C33.0942 71.6742 33.5592 71.204 34.0701 70.7844C34.6249 70.3268 35.2053 69.8982 35.7582 69.437C36.3167 68.974 36.8129 68.4549 37.0509 67.7496C37.2798 67.0659 37.3109 66.3841 36.8037 65.8144C36.3149 65.2664 35.6594 65.2302 34.9782 65.4165C34.3722 65.5811 33.7698 65.7638 33.1564 65.8885C31.4939 66.2268 30.1518 65.223 29.987 63.5519C29.901 62.6837 30.1317 61.8916 30.5528 61.141C30.9684 60.3995 31.5379 59.7792 32.1348 59.1787C32.7738 58.5367 33.4347 57.9127 33.9492 57.1603C35.1229 55.4422 34.8995 53.7005 33.3157 52.335C32.3709 51.5212 31.2357 51.0708 30.0511 50.7308C29.1759 50.4812 28.2952 50.257 27.42 50.0056C27.0593 49.9025 26.7023 49.7777 26.358 49.6294C24.2469 48.7161 23.6134 46.9147 24.6864 44.8909C25.1459 44.0246 25.7978 43.3138 26.5631 42.7007C27.1985 42.1907 27.8466 41.6988 28.4746 41.1815C29.0569 40.7022 29.5769 40.1597 29.9486 39.4977C30.6755 38.1992 30.5198 36.906 29.5128 35.801C28.8939 35.1228 28.1341 34.6254 27.3376 34.1805C25.9369 33.3992 24.4465 32.8204 22.936 32.2869C22.1963 32.0265 21.4511 31.7823 20.715 31.5128C17.6426 30.3915 14.757 28.9917 12.7741 26.1829C11.8311 27.1758 11.3093 28.3134 10.9669 29.5415C10.6154 30.8075 10.5348 32.1133 10.4341 33.4136C10.392 33.9508 10.4762 33.9598 10.9926 33.8224C14.497 32.8964 17.899 33.0266 21.1123 34.8659C21.5701 35.1282 21.9747 35.461 22.2805 35.8751C22.0681 36.2025 21.9106 35.9637 21.7806 35.8932C19.133 34.45 16.3994 34.3414 13.5889 35.3579C13.3527 35.4429 13.1183 35.5333 12.8803 35.6129C11.5785 36.0469 11.2306 35.9475 10.3957 34.8768C10.3316 35.4646 10.2638 36.0108 10.2144 36.557C10.0679 38.2136 9.69624 39.8052 8.83568 41.2557C8.72948 41.4329 8.53906 41.6156 8.7478 41.8308C8.90526 41.9936 9.09934 41.8923 9.27511 41.8453C9.5168 41.7801 9.753 41.6789 9.99835 41.6373C10.4305 41.5613 10.6209 41.3117 10.7271 40.903C11.0274 39.7582 11.6902 38.8231 12.5544 38.0219C12.7137 37.8736 12.8656 37.7072 13.089 37.6566C13.1403 37.6457 13.2099 37.6837 13.263 37.7145C13.3673 37.7741 13.36 37.8845 13.3032 37.9496C13.1586 38.1123 12.9956 38.257 12.8363 38.4053C12.0399 39.1487 11.5419 40.071 11.1537 41.0676C10.9981 41.4709 11.0988 41.7042 11.4979 41.8633C12.1149 42.1093 12.7448 42.2884 13.4113 42.3263C14.7662 42.4041 16.1174 42.3426 17.465 42.2142C18.1791 42.1455 18.1773 42.1274 18.3329 41.3931C18.5618 42.1003 18.4281 42.5162 17.7836 43.0064C17.0933 43.5327 16.2749 43.7587 15.4382 43.9251C13.7518 44.2579 12.0618 44.2579 10.3737 43.9468C9.4399 43.7732 8.54273 43.4947 7.79935 42.7984C7.10175 43.7153 6.37303 44.5672 5.5674 45.3557C4.67023 46.2329 3.70531 47.025 2.66715 47.734C2.07208 48.1409 1.48984 48.5696 1.03209 49.1338C0.350975 49.9748 0.405904 50.6928 1.21519 51.4217C1.53927 51.7129 1.88533 51.9787 2.33025 52.0927C2.57011 52.1542 2.80081 52.2699 3.0187 52.3911C4.02756 52.9572 4.31868 53.7493 3.92136 54.8218C3.86826 54.9665 3.80235 55.1058 3.70897 55.3228C4.61347 55.538 5.41909 55.9214 6.18261 56.3971C7.47893 57.2055 8.78991 57.9507 10.425 57.1223C10.0826 58.7935 8.09963 60.4863 5.05839 61.7758C5.73951 62.9659 5.3898 64.1396 4.95037 65.3098C4.88445 65.4834 4.83319 65.6643 4.78009 65.8433C4.25643 67.6266 4.88628 69.021 6.59824 69.8295C7.58147 70.2943 8.64343 70.4209 9.71638 70.4715C12.4299 70.5963 15.1214 70.3304 17.8111 70.0248C18.873 69.9036 19.9277 69.7209 21.0025 69.7209C23.412 69.7227 25.1331 70.8296 26.2464 72.9022C26.8286 73.9892 27.0941 75.1684 27.1838 76.3874C27.3156 78.1923 27.1582 79.9901 26.9952 81.786C26.7792 84.1679 26.6235 86.557 26.2958 88.9281C26.2702 89.1126 26.2482 89.2988 26.2116 89.4815C26.175 89.6624 26.045 89.7401 25.8692 89.7112C25.7264 89.6877 25.6696 89.5665 25.6714 89.4381C25.6769 89.0963 25.6751 88.7544 25.7081 88.4144C25.9699 85.6925 26.2482 82.9724 26.5009 80.2505C26.6711 78.4184 26.7297 76.5881 26.2152 74.7904C26.1054 74.4034 25.9754 74.0181 25.8124 73.6492C24.8109 71.3722 22.9396 70.2219 20.4275 70.3811C19.1092 70.4643 17.7964 70.6198 16.4836 70.7518C14.5099 70.9526 12.5342 71.0828 10.5495 71.0484C9.50948 71.0303 8.47681 70.9291 7.46429 70.6885C6.88021 70.5493 6.32909 70.3304 5.82008 70.0085C4.27108 69.0319 3.70714 67.5778 4.21981 65.8325C4.38643 65.2664 4.58967 64.7112 4.77093 64.1505C4.93755 63.6369 4.97051 63.1069 4.84783 62.5861C4.76178 62.2244 4.61347 61.9205 4.16671 61.7885C2.32659 61.2423 1.93476 60.2819 2.85757 58.6651C2.52616 58.2238 2.15814 57.806 1.97871 57.2562C1.75899 56.5816 1.90547 56.0372 2.43645 55.5796C2.69644 55.3554 2.99489 55.1655 3.21644 54.9086C3.90855 54.1074 3.74742 53.3316 2.79898 52.8649C2.3211 52.6298 1.82857 52.4218 1.32871 52.2392C0.0452029 51.7689 -0.505919 49.8121 0.552381 48.6184C1.11998 47.9763 1.82307 47.5115 2.5225 47.0341C4.13742 45.9326 5.58205 44.6486 6.84725 43.1691C8.61047 41.111 9.54243 38.711 9.79145 36.0415C9.91778 34.6797 10.024 33.3178 10.143 31.9559C10.3279 29.8363 10.9926 27.8902 12.3127 26.1902C12.5031 25.9442 12.5672 25.7651 12.4171 25.4631C11.4247 23.4592 11.4228 21.3703 12.0582 19.2886C13.2007 15.5449 15.5279 12.794 19.2392 11.2802C20.1199 10.9203 21.0427 10.7593 21.9985 10.7521C23.2399 10.7449 24.344 11.103 25.3199 11.8716C25.8033 12.2532 25.9186 12.2062 26.0358 11.6636C27.1893 6.33374 30.7487 2.85041 36.1318 1.9208C39.9292 1.26428 43.5087 2.04378 46.8795 3.83066C49.4063 5.17082 51.5284 7.00111 53.4143 9.11896C53.6138 9.34322 53.7585 9.63078 54.1631 9.80441C54.24 9.31428 54.1412 8.87661 54.0826 8.44436C53.8976 7.06983 53.9745 5.7134 54.3645 4.38228C55.1757 1.60972 57.2923 0.0235958 60.2145 8.42564e-05C61.5163 -0.0107672 62.7815 0.24786 63.9973 0.69458C68.6827 2.42178 72.2494 5.37338 74.28 9.96899C74.8366 11.2296 75.1369 12.5589 75.2193 13.9388C75.3419 16.0024 74.637 17.7097 73.0532 19.068C72.5515 19.4984 71.9913 19.8402 71.4456 20.2074C71.268 20.287 71.063 20.3213 70.9403 20.4949C70.5906 20.5112 70.3068 20.6848 70.023 20.8639C69.6202 20.9525 69.2174 21.0411 68.8145 21.1316C67.5896 21.1931 66.4489 20.9145 65.3778 20.3249C64.0577 19.5997 62.787 18.8003 61.5932 17.8833C59.8977 16.5812 58.7808 14.892 58.1876 12.8645C57.7097 11.2332 57.5889 9.56206 57.783 7.88189C58.1125 5.03518 60.2365 3.17776 63.1459 3.15787C65.3851 3.14159 67.1337 4.13993 68.5362 5.78393C69.9772 7.47315 70.7535 9.45354 70.9476 11.6419C71.0721 13.0562 70.878 14.4398 70.1859 15.7076C69.6568 16.6752 68.8988 17.4041 67.7233 17.5252C65.5298 17.7531 62.9097 15.6696 62.6716 13.5066C62.6314 13.1394 62.624 12.7524 62.6973 12.3943C62.8749 11.5316 63.3033 10.8281 64.2042 10.5206C64.8065 10.3162 65.3943 10.4826 65.7312 10.9312C66.004 11.2965 66.0113 11.6817 65.7861 12.0633C65.5975 12.3816 65.3119 12.5516 64.9256 12.5191C64.7187 12.5028 64.5356 12.425 64.5337 12.2044C64.5319 12.029 64.6857 11.9548 64.8651 11.9639C65.2094 11.9819 65.4401 11.8246 65.3888 11.481C65.3375 11.1301 65.0611 10.9782 64.704 10.9691C64.3653 10.9601 64.0943 11.1012 63.8636 11.3254C63.4644 11.7125 63.274 12.1972 63.2319 12.7415C63.1221 14.1649 63.8563 15.1705 64.9201 15.988C67.1703 17.7188 69.2338 17.0659 70.0541 14.3819C71.1325 10.8498 69.2411 6.26863 65.971 4.49079C65.2734 4.11099 64.5282 3.89034 63.7373 3.80715C61.0457 3.52863 58.9365 5.11837 58.4787 7.75709C58.3597 8.43712 58.3286 9.11534 58.3615 9.79898C58.5282 13.2678 59.8758 16.1073 62.9042 18.0353C63.7482 18.5724 64.5887 19.124 65.4694 19.5997C67.91 20.92 69.9937 20.6541 72.1194 18.8003C72.2275 18.7894 72.2915 18.7261 72.3208 18.6249L72.3025 18.6484C72.4161 18.6231 72.4984 18.567 72.5094 18.4422L72.493 18.4675C72.6156 18.4512 72.6999 18.397 72.6999 18.2595L72.6852 18.2776C72.8207 18.2758 72.8903 18.2089 72.8884 18.0751L72.8738 18.0895C73.0111 18.0913 73.0734 18.0172 73.0789 17.8888L73.0752 17.9141C74.2818 16.8398 74.6022 15.4273 74.4503 13.9352C73.8882 8.44978 70.6492 4.85613 65.9125 2.35667L65.9015 2.39646C65.8429 2.19751 65.6817 2.18304 65.5133 2.18666L65.5243 2.21017C65.4675 2.00399 65.2954 2.01123 65.1325 1.99857L65.1453 2.0257C65.083 1.82856 64.9073 1.83941 64.7498 1.81771L64.7663 1.84122C64.618 1.64228 64.4129 1.59887 64.1804 1.63143L64.2005 1.65313C64.1492 1.43067 63.9551 1.4777 63.8032 1.45057L63.8233 1.47227C63.6732 1.27694 63.448 1.2896 63.2356 1.26609L63.2575 1.28599C63.0397 1.06896 62.754 1.08704 62.4794 1.07257L62.5014 1.09609C62.2011 0.821181 61.7964 0.851927 61.4449 0.806712C58.638 0.43957 56.6166 1.24981 55.3826 3.57565C55.0768 4.15259 54.8681 4.77112 54.7582 5.41679C54.3298 7.95966 54.8406 10.3886 55.6847 12.7741C55.7085 13.5048 56.0637 14.1414 56.32 14.7961C57.1641 16.9465 58.3139 18.9359 59.7073 20.7897C59.8648 20.9977 60.1888 21.1894 59.9618 21.5493C59.6194 21.4408 59.5004 21.1677 59.332 20.9525C58.6984 20.1405 58.129 19.2868 57.5889 18.4115C56.5416 16.706 55.7945 14.8666 55.0786 13.0128C55.0859 12.87 55.0786 12.7325 54.9303 12.6511L54.9596 12.6565C54.8827 11.9223 54.5733 11.3001 54.0716 10.7521C53.6303 10.2692 53.2458 9.73388 52.81 9.24375C50.7154 6.87631 48.293 4.92305 45.3543 3.66066C41.5423 2.02208 37.6496 1.67121 33.7076 3.17234C29.6025 4.73676 26.1768 8.96884 26.4972 13.7399C26.5082 13.89 26.5137 14.0546 26.3159 14.1125C25.3803 11.4575 23.1044 10.9275 21.0592 11.2766C20.0247 11.452 19.0507 11.7993 18.1535 12.3274C15.0939 14.1269 13.2117 16.7819 12.45 20.1947C11.7652 23.2675 12.721 25.8266 15.1104 27.8812C15.9453 28.5992 16.8736 29.1743 17.8569 29.6717C19.4828 30.4964 21.2112 31.0715 22.9213 31.6883C24.6333 32.3068 26.3342 32.9506 27.8924 33.9056C28.6706 34.383 29.4158 34.9003 30.009 35.5984C30.9391 36.6908 31.1662 37.9044 30.6535 39.2517C30.2525 40.3025 29.5458 41.12 28.6889 41.8254C27.9876 42.4005 27.2607 42.9467 26.5704 43.5345C25.8454 44.1512 25.2741 44.8891 24.9903 45.8079C24.5527 47.2312 25.0251 48.329 26.3764 48.9783C26.77 49.1682 27.1911 49.302 27.6104 49.4323C28.7768 49.7976 29.9559 50.1268 31.1167 50.512C32.2648 50.8936 33.2828 51.5031 34.0939 52.4128C35.328 53.7946 35.5092 55.4512 34.6139 57.0699C34.2495 57.73 33.7588 58.2961 33.2443 58.8423C32.6657 59.4554 32.0615 60.0468 31.5598 60.7287C31.0728 61.3924 30.7139 62.1032 30.7029 62.9514C30.6773 64.7184 31.8162 65.5467 33.3487 65.1615C33.9566 65.0096 34.5791 64.8956 35.2016 64.8287C36.7488 64.6641 37.6258 65.5196 37.6039 67.0695C37.5965 67.5488 37.3292 67.9558 37.3365 68.426L37.3512 68.4151C37.1479 68.4712 37.0344 68.5779 37.1333 68.8004L37.1663 68.7769C36.9484 68.7063 36.9484 68.8402 36.9648 68.9885V68.9649C36.7653 69.0264 36.5803 69.097 36.7506 69.3574L36.7744 69.3122L36.7268 69.2905C35.9212 69.7589 35.2877 70.4299 34.6066 71.0466C34.2587 71.3613 33.9621 71.7248 33.7259 72.1336C33.2754 72.9131 33.1381 73.7179 33.6746 74.501C34.2056 75.2769 34.9819 75.5409 35.9011 75.342C36.9941 75.1069 38.0836 74.8447 39.1529 75.6965C39.1272 75.2498 39.0265 75.0038 38.8343 74.7922C38.8453 74.6783 38.7885 74.6204 38.6768 74.6113L38.6731 74.6077C38.6438 74.4377 38.5285 74.3672 38.3692 74.3437L38.3289 74.3889L38.3619 74.3382C38.3179 74.2279 38.2374 74.1899 38.122 74.2134L38.1293 74.2171C37.7741 73.8843 37.3201 73.953 36.8916 73.9132C35.8333 73.8119 35.4598 73.2242 35.848 72.2439C36.1153 71.5675 36.5657 71.005 37.0729 70.4914C37.732 69.824 38.4205 69.1856 39.0796 68.5182C39.6747 67.9142 40.191 67.2522 40.4602 66.4311C41.0058 64.7618 40.2386 63.4397 38.512 63.0834C38.144 63.0075 37.765 62.9641 37.4025 62.8664C35.9029 62.4631 35.2657 61.3146 35.7363 59.8569C35.9926 59.0666 36.4796 58.4209 37.1315 57.9055C37.7448 57.4208 38.3729 56.9523 38.9991 56.4821C41.6613 54.4854 40.9417 50.0815 37.5727 48.9928C36.8825 48.7703 36.1739 48.6365 35.4689 48.4846C34.6377 48.3055 33.8119 48.1102 33.0612 47.696C30.8915 46.4987 30.5656 44.4749 32.2648 42.6826C32.6071 42.3209 32.9916 41.9936 33.3853 41.6861C33.9273 41.2611 34.4949 40.8704 35.0497 40.4617C35.782 39.9209 36.487 39.3476 37.0454 38.6242C38.1293 37.2207 38.241 35.7322 37.4043 34.1769C36.8916 33.2219 36.1299 32.4895 35.2511 31.8637C34.147 31.077 32.9331 30.4892 31.666 30.0171C29.8149 29.3262 27.9492 28.6715 26.0999 27.9789C24.4465 27.3603 22.8701 26.5917 21.4803 25.4921C20.4861 24.7053 19.6457 23.792 19.1257 22.6236C17.7745 19.5888 19.567 15.9572 22.8041 15.1849C23.9375 14.9137 25.0526 15.0728 26.1566 15.3676L26.1731 15.3748C26.239 15.4707 26.3288 15.4888 26.4368 15.4562C26.4551 15.4978 26.488 15.5141 26.5338 15.5051C27.0978 16.0151 27.9473 16.2321 28.3062 17.1527C27.8228 17.0207 27.6397 16.7114 27.3852 16.5088C25.0764 14.6695 20.574 14.8666 19.3546 19.0101C18.8291 20.7988 19.2887 22.3831 20.5191 23.7649C21.5774 24.9531 22.9103 25.767 24.3312 26.4524C25.915 27.2156 27.583 27.7709 29.24 28.3496C30.9574 28.9483 32.6786 29.5397 34.2843 30.406C35.2547 30.9287 36.1739 31.5255 36.9099 32.3538C38.9624 34.6688 39.1236 37.4775 36.6041 39.7817C35.8864 40.4382 35.0954 40.9988 34.3173 41.5794C33.6911 42.0478 33.0576 42.5126 32.5357 43.0986C31.3163 44.4713 31.5086 45.8549 33.0521 46.8731C33.7442 47.3307 34.5297 47.5513 35.328 47.7268C36.1867 47.9149 37.0582 48.0487 37.8932 48.3272C39.3652 48.8191 40.3265 49.8084 40.819 51.2625C41.5368 53.3804 40.9838 55.3698 39.2462 56.7914C38.6658 57.267 38.0433 57.6902 37.461 58.1641C36.844 58.6669 36.3625 59.2655 36.1922 60.0703C35.9487 61.2188 36.3808 61.9368 37.5398 62.2244C37.9353 62.322 38.3436 62.3636 38.7427 62.4486C40.5902 62.8375 41.5185 64.3386 41.0259 66.1417C40.9362 66.4691 40.8355 66.7928 40.7385 67.1166L40.7403 67.1184C40.5535 67.1744 40.5261 67.3336 40.495 67.491C39.8138 68.464 38.8874 69.22 38.1055 70.1025C37.992 70.1261 37.9206 70.1857 37.9206 70.3087L37.9243 70.3033C37.635 70.3883 37.4885 70.6415 37.3072 70.8423C36.8898 71.3034 36.498 71.7918 36.2837 72.3777C36.0695 72.9583 36.2801 73.2422 36.9099 73.3001C37.0344 73.311 37.1589 73.3001 37.2834 73.3074C38.0982 73.3453 38.686 73.736 39.1107 74.4178C39.5447 75.1177 39.6088 75.8575 39.4421 76.6388C39.1803 77.0782 38.9203 77.5159 38.6585 77.9554C38.4534 78.0802 38.3472 78.2538 38.296 78.5287C38.5779 78.4383 38.761 78.3551 38.8691 78.1634C39.2664 77.9156 39.6728 77.6823 40.0574 77.4183C40.6286 77.024 41.1358 76.5628 41.4745 75.9497C42.0714 74.8736 41.8096 73.8825 40.7714 73.2368C40.5334 73.0885 40.2789 72.9619 40.0464 72.8064C39.14 72.1969 38.8269 71.3306 39.14 70.2943C39.3817 69.4949 39.8614 68.851 40.5334 68.3555C41.0607 67.9666 41.6137 67.6085 42.1483 67.2287C42.6372 66.8833 43.0748 66.4854 43.3696 65.9573C43.8456 65.1054 43.7614 64.3675 43.0748 63.664C42.617 63.1956 42.0952 62.7995 41.5148 62.483C40.3595 61.387 40.0519 60.1246 40.755 58.6669C40.8959 58.6144 40.9435 58.5023 40.96 58.3667L40.9527 58.3902C41.7492 57.4877 42.7159 56.8167 43.7962 56.2868C44.2722 56.0517 44.7282 55.7695 45.1749 55.482C45.6253 55.1908 46.008 54.8218 46.3119 54.3769C47.2586 52.9915 46.9143 51.7237 45.391 51.0075C44.7336 50.6983 44.0251 50.5481 43.3275 50.3673C42.7196 50.2081 42.1117 50.0436 41.5569 49.7451C40.2643 49.0488 39.7717 47.8443 40.1434 46.4336C40.3064 45.8151 40.7037 45.3322 40.993 44.786L40.9545 44.777C41.1047 44.7896 41.1578 44.7064 41.1578 44.5726L41.1376 44.5853C41.2823 44.5907 41.3518 44.4948 41.4141 44.3881C41.87 44.0481 42.3351 43.7171 42.78 43.3627C42.9228 43.2487 43.1993 43.1981 43.1132 42.9087C43.3513 43.0154 43.463 42.8364 43.5948 42.7007L43.5875 42.7043C43.6955 42.6808 43.7742 42.6266 43.7944 42.5108L43.7779 42.5361C43.8951 42.5144 43.9903 42.471 43.9866 42.33V42.3697C44.1825 42.3028 44.3638 42.2214 44.3967 41.9863L44.3546 41.9827C44.5267 42.0189 44.6274 41.9809 44.567 41.7801L44.5451 41.8018C44.7373 41.8561 44.8197 41.8 44.7574 41.5957L44.7355 41.6174C44.9369 41.6789 45.012 41.6156 44.9479 41.4094L44.9698 41.4618C46.3357 40.4834 47.0388 39.0962 47.319 37.5083C47.4911 36.5298 47.4362 35.5315 46.8026 34.6652L46.8155 34.6851C46.7953 34.5368 46.7239 34.421 46.6031 34.3324L46.5921 34.3143C46.5793 34.2094 46.517 34.1425 46.4218 34.1027C46.041 33.3739 45.3415 33.0049 44.6696 32.6124C43.8255 32.1205 42.8935 31.8293 41.9744 31.5146C41.1431 31.2307 40.3064 30.9594 39.5557 30.4892C38.5743 29.8724 37.9279 29.0296 37.8217 27.8577C37.7595 27.1831 37.9243 26.5609 38.4296 26.0636C38.523 25.9731 38.631 25.9044 38.7537 26.0021C38.8819 26.1034 38.8288 26.2173 38.7427 26.3204C38.4351 26.6911 38.2062 27.0872 38.3069 27.5954C38.1989 28.4183 38.6164 29.0278 39.1565 29.574C39.6033 30.0226 40.1489 30.3372 40.7403 30.5615C41.4727 30.8382 42.2161 31.0842 42.9558 31.341C44.0562 31.7244 45.1181 32.1838 46.0281 32.9271C47.5369 34.1624 48.1173 35.7413 47.828 37.6511C47.6705 38.6857 47.2622 39.6135 46.6745 40.4725C46.0172 41.4329 45.1987 42.2431 44.2832 42.963C43.6186 43.4838 42.9485 43.9993 42.304 44.5419C41.6997 45.0501 41.2017 45.6433 40.9142 46.392C40.4968 47.4844 40.7916 48.4194 41.7711 49.0687C42.2985 49.4196 42.8954 49.6095 43.4977 49.7922C44.307 50.0363 45.1346 50.2335 45.889 50.6295C47.3904 51.4199 47.8225 52.8306 47.0553 54.3353C46.8264 54.7838 46.4438 55.1166 46.1966 55.5471L46.2277 55.5543C46.0867 55.5489 46.0062 55.6049 46.0245 55.7551L46.0208 55.7153C45.7846 55.7876 45.596 55.9233 45.4587 56.1276L45.4789 56.1114C45.3653 56.1367 45.2408 56.1511 45.2683 56.3175L45.2866 56.2922C45.0998 56.2597 44.968 56.3266 44.8966 56.502L44.8948 56.4695C44.1441 56.7841 43.4446 57.1965 42.7745 57.6505C42.1721 58.0574 41.6686 58.5638 41.3409 59.2185C40.8923 60.1156 41.0058 60.9746 41.7107 61.6908C42.0586 62.0435 42.4541 62.3546 42.8459 62.6638C43.6973 63.3348 44.2631 64.1433 44.2118 65.2718C44.1569 65.3333 44.1624 65.4165 44.2356 65.4219C44.3015 65.4274 44.3198 65.3405 44.2851 65.2718C44.5707 64.7148 45.0046 64.2771 45.585 63.8919C45.3159 63.7598 45.142 63.6965 44.9918 63.5971C44.7831 63.4578 44.3125 63.4433 44.4901 63.078C44.6586 62.7326 44.99 63.0346 45.2115 63.1377C47.0755 64.0022 49.0291 64.2879 51.0761 64.1794C52.7112 64.0926 54.3297 63.9045 55.9282 63.5699C59.2843 62.8664 62.4226 61.6637 65.1105 59.4934C68.0528 57.1187 70.0871 54.1762 70.7078 50.4071C71.1783 47.5513 70.9165 44.7137 70.2958 41.9067C70.0083 40.6136 69.7282 39.3096 69.0892 38.1214C69.3895 37.7072 69.0086 37.2858 69.1057 36.8698C69.2796 36.1175 68.8475 35.801 68.1993 35.6436C68.0785 35.7793 68.1298 35.9366 68.1554 36.0831C68.4703 37.8754 68.4538 39.6768 68.17 41.4636C67.0257 48.6672 63.2008 53.9664 56.5306 57.1549C53.5095 58.5981 50.2906 59.2384 46.9162 58.9526C46.1838 58.8911 45.499 58.6795 44.871 58.3034C44.7428 58.2256 44.4846 58.1569 44.6989 57.8458C45.5594 58.2654 46.4566 58.5909 47.4471 58.5783C48.3919 58.5674 49.333 58.5566 50.2687 58.3992C58.367 57.0446 63.9625 52.6533 66.8078 45.003C67.8295 42.2576 68.1682 39.3928 67.7636 36.472C67.6738 35.8299 67.5823 35.1698 67.1081 34.6616C65.8905 33.3558 65.2533 31.8022 65.0537 30.0551C65.0263 29.8109 65.0592 29.5342 64.8926 29.3371C63.7647 28.0024 62.4153 27.0691 60.5697 27.0402C59.4436 27.0221 58.3689 27.25 57.3893 27.7745C53.4344 29.8869 51.2189 33.1767 50.8967 37.6023C50.7465 39.6677 51.5595 41.3732 53.5278 42.3788C55.9062 43.5942 59.0152 43.0118 60.7711 41.0242C61.368 40.3496 61.7378 39.5755 61.8331 38.682C62.0418 36.7306 60.6576 35.0305 58.8431 34.9962C57.219 34.9672 55.7561 36.2604 55.5711 37.8953C55.4888 38.6079 55.7304 39.2463 56.1955 39.4398C56.8547 39.7147 57.241 39.2481 57.6639 38.8774C57.9075 38.664 58.1418 38.0816 58.3927 38.3059C58.7991 38.6712 58.1931 38.9642 58.0118 39.2861C57.9825 39.3386 57.9313 39.382 57.8855 39.4236C57.3582 39.9155 56.7668 40.279 56.0197 40.0041C55.2452 39.7202 54.9688 39.0637 54.923 38.3041C54.8168 36.5497 56.1314 34.884 57.966 34.4283C59.6505 34.0105 61.324 34.7972 62.0912 36.4322C62.9115 38.1811 62.657 39.8359 61.4284 41.3099C60.0112 43.0082 58.1382 43.7334 55.9282 43.6629C52.4896 43.5526 50.1387 41.2068 50.168 37.8157C50.1973 34.4246 51.7096 31.6575 54.0844 29.3118C55.2306 28.1796 56.558 27.2916 58.1217 26.8105C60.6466 26.0346 62.9042 26.3855 64.7461 28.4057C64.7773 28.4382 64.8578 28.4274 64.9787 28.4473C65.0958 25.4143 66.0736 22.8425 69.0031 21.3703C69.3474 21.2256 69.7282 21.1442 69.9973 20.8548C70.3525 20.9037 70.673 20.8006 70.9787 20.6342C71.2113 20.6668 71.4145 20.5763 71.6196 20.4895C74.0548 20.2291 76.4497 20.4588 78.8171 21.0538C79.7619 21.2907 80.6847 21.5982 81.5727 21.9979C85.1523 23.6129 87.17 26.3927 87.7834 30.1944C88.2979 33.3757 87.8365 36.4647 86.639 39.4218C85.1926 42.9919 82.5358 45.2255 78.6615 45.9327C76.7866 46.2745 75.1131 45.7862 73.6428 44.5979C72.9068 44.0047 72.297 43.2939 71.713 42.5615C71.5775 42.3914 71.4493 42.2124 71.301 42.0532C71.2461 41.9936 71.1582 41.9483 71.0483 41.9936C70.9073 42.0532 70.8671 42.1455 70.8927 42.2829C70.9549 42.6193 71.0227 42.9539 71.0776 43.2903C71.5409 46.1352 71.6672 48.9819 70.9018 51.7943C69.8234 55.7569 67.3791 58.7446 63.9771 61.0126C61.0567 62.9605 57.7958 64.0203 54.3334 64.5249C52.9968 64.7202 51.6547 64.892 50.298 64.8956C49.637 64.8974 48.9705 64.921 48.3278 64.7491C47.8097 64.6099 47.4142 64.7853 47.0388 65.1127C46.2698 65.7782 45.8377 66.6228 45.7022 67.6085C45.5686 68.5888 46.0739 69.229 47.0663 69.3665C47.5625 69.4352 48.0733 69.4117 48.5677 69.493C49.6242 69.6685 50.1954 70.4353 50.102 71.4897C50.0709 71.8406 49.9611 72.1589 49.6992 72.4103C49.5637 72.5405 49.4228 72.6635 49.2818 72.7883C48.478 73.5027 48.3699 74.1719 48.9559 74.785C49.474 75.3257 50.6092 75.2932 51.1786 74.6963C51.3599 74.5064 51.6053 74.2171 51.0285 74.2207C50.8967 74.2207 50.7685 74.1809 50.7905 74.0181C50.8015 73.9349 50.8546 73.8373 50.9187 73.7848C51.2647 73.5117 51.7609 73.6835 51.8854 74.1194C51.9477 74.3364 51.9129 74.548 51.8067 74.7506C51.4991 75.3456 50.4572 75.7887 49.6699 75.6549C48.813 75.5084 48.2052 74.9224 48.0898 74.1465C47.9873 73.4611 48.2308 72.9276 48.7984 72.5351C49.3678 72.1408 49.853 71.6977 49.5747 70.92C49.2891 70.1261 48.5787 70.1894 47.9177 70.1658C47.7291 70.1586 47.5405 70.1568 47.3519 70.1441C45.9787 70.0573 45.347 69.5672 44.9003 68.2379C44.8197 66.7368 45.3873 65.487 46.4511 64.42C45.4148 64.5629 44.9625 65.27 44.7721 66.1436C44.6311 66.829 44.5194 67.538 44.6238 68.2542ZM83.0814 43.2614L83.0705 43.2795C83.184 43.256 83.2627 43.1999 83.2737 43.0769V43.1022C83.7314 42.9449 84.0519 42.6193 84.3595 42.2667C85.1065 41.4112 85.6997 40.4653 86.0897 39.4073C87.2011 36.387 87.7339 33.278 87.1846 30.0859C86.5456 26.371 84.548 23.6383 80.9246 22.2004C79.1046 21.4788 77.204 21.0665 75.2577 20.9037C73.5824 20.7626 71.8924 20.7047 70.3013 21.4318C68.2652 21.9979 66.817 23.2422 66.0754 25.1918C65.3247 27.1632 65.2625 29.2069 65.7879 31.2415C66.2054 32.8584 67.0916 34.1931 68.5069 35.1445C68.7047 35.2783 68.8914 35.4827 69.2119 35.3904C69.2961 35.016 69.3766 34.6254 69.4737 34.2402C69.8344 32.8186 70.2958 31.4369 71.171 30.2269C72.6962 28.1163 75.0471 27.4851 77.4146 28.5648C78.6523 29.1291 79.588 30.028 80.2617 31.1945C81.1205 32.6848 81.4995 34.3017 81.5746 36.0017C81.635 37.3527 81.494 38.673 80.9246 39.9173C79.4598 43.1167 75.9407 43.6683 73.5751 41.0386C72.1231 39.4272 71.6873 37.5047 72.0297 35.394C72.1304 34.7719 72.3391 34.1895 72.7108 33.6741C73.6556 32.3629 75.5946 32.0735 76.9092 33.0411C78.1104 33.9255 78.3777 35.8263 77.4714 37.0616C77.2095 37.4197 76.8928 37.7181 76.4588 37.8664C75.7356 38.1123 75.0343 37.6982 74.9062 36.953C74.8073 36.3743 75.1094 35.8408 75.688 35.6183C75.9828 35.5044 76.2849 35.4899 76.6108 35.5514C77.0008 35.6255 76.8378 36.0849 77.1271 36.2206C77.5061 35.2457 77.3267 34.3035 76.6694 33.7247C76.0084 33.1405 74.9226 33.0085 74.1024 33.4227C73.5091 33.7211 73.132 34.2167 72.9306 34.8243C72.2879 36.7523 72.7108 39.3982 74.5345 40.9753C76.4808 42.6591 78.9013 42.263 80.1922 40.0439C80.7341 39.1107 80.9777 38.0906 81.0362 37.02C81.1388 35.1897 80.8861 33.4263 80.0512 31.7715C79.5202 30.7189 78.7695 29.8598 77.7387 29.2539C75.428 27.8993 72.936 28.4129 71.4749 30.6375C70.1749 32.6143 69.5982 34.8243 69.6733 37.1845C69.6916 37.7416 69.7978 38.295 70.0724 38.7978C70.0633 38.9461 70.1127 39.0691 70.2299 39.1649L70.2152 39.1487C70.2445 39.2518 70.2097 39.4109 70.4093 39.3621L70.3654 39.3512C70.2995 39.6297 70.4935 39.8178 70.6162 40.024C71.3761 41.319 72.2897 42.5018 73.3352 43.5851C75.2357 45.5565 77.4842 46.0122 80.0494 45.0917C80.9209 44.8276 81.7998 44.5798 82.4058 43.8311C82.5889 43.86 82.7116 43.7732 82.8013 43.6267C82.8947 43.6177 82.8892 43.5526 82.88 43.4874C82.9734 43.4386 83.0668 43.3825 83.0814 43.2614ZM70.7737 41.5468C70.7847 41.6517 70.7645 41.8018 70.933 41.7711C71.0611 41.7476 70.9861 41.6427 70.9568 41.5704C70.9586 41.4582 70.9128 41.3913 70.792 41.3931C70.7865 41.3117 70.7865 41.1815 70.684 41.2159C70.5979 41.2448 70.6235 41.3678 70.7114 41.4347C70.6986 41.489 70.7188 41.5269 70.7737 41.5468ZM77.074 36.2513C76.7298 36.2188 76.4533 36.179 76.175 36.1699C75.8674 36.1609 75.6129 36.273 75.525 36.5913C75.4518 36.8518 75.5177 37.0905 75.7594 37.2424C76.0395 37.4178 76.3069 37.3419 76.5376 37.1466C76.7957 36.9295 77.0649 36.7089 77.074 36.2513ZM39.1419 75.7345C39.0723 75.7634 39.0558 75.8122 39.0924 75.881C39.1071 75.9081 39.1236 75.9334 39.1382 75.9587C39.1693 75.9189 39.2206 75.881 39.2243 75.8376C39.2261 75.8068 39.1693 75.7688 39.1419 75.7345ZM8.57751 41.7621C8.55737 41.7801 8.51709 41.8018 8.51892 41.8163C8.52808 41.8561 8.55188 41.8941 8.57202 41.9321C8.59216 41.914 8.63244 41.8923 8.63061 41.8778C8.62146 41.8362 8.59582 41.8 8.57751 41.7621Z" fill="#010721"/>
</svg>
